<svg width="512" height="512" viewBox="0 0 512 512" fill="none" xmlns="http://www.w3.org/2000/svg">
  <defs>
    <linearGradient id="bg" x1="64" y1="52" x2="434" y2="460" gradientUnits="userSpaceOnUse">
      <stop stop-color="#120F18" />
      <stop offset="0.58" stop-color="#211425" />
      <stop offset="1" stop-color="#301D33" />
    </linearGradient>
    <linearGradient id="bubble" x1="134" y1="104" x2="384" y2="346" gradientUnits="userSpaceOnUse">
      <stop stop-color="#FF8E72" />
      <stop offset="1" stop-color="#FFBE7A" />
    </linearGradient>
    <radialGradient id="glowWarm" cx="0" cy="0" r="1" gradientUnits="userSpaceOnUse" gradientTransform="translate(134 110) rotate(48.6072) scale(192.45 214.626)">
      <stop stop-color="#FFB499" stop-opacity="0.45" />
      <stop offset="1" stop-color="#FFB499" stop-opacity="0" />
    </radialGradient>
    <radialGradient id="glowCool" cx="0" cy="0" r="1" gradientUnits="userSpaceOnUse" gradientTransform="translate(380 126) rotate(134.162) scale(152.539 133.005)">
      <stop stop-color="#82CADC" stop-opacity="0.35" />
      <stop offset="1" stop-color="#82CADC" stop-opacity="0" />
    </radialGradient>
    <filter id="shadow" x="80" y="70" width="360" height="356" filterUnits="userSpaceOnUse" color-interpolation-filters="sRGB">
      <feFlood flood-opacity="0" result="BackgroundImageFix"/>
      <feColorMatrix in="SourceAlpha" type="matrix" values="0 0 0 0 0 0 0 0 0 0 0 0 0 0 0 0 0 0 127 0" result="hardAlpha"/>
      <feOffset dy="18"/>
      <feGaussianBlur stdDeviation="18"/>
      <feComposite in2="hardAlpha" operator="out"/>
      <feColorMatrix type="matrix" values="0 0 0 0 0.0470588 0 0 0 0 0.0392157 0 0 0 0 0.0705882 0 0 0 0.32 0"/>
      <feBlend mode="normal" in2="BackgroundImageFix" result="effect1_dropShadow_0_1"/>
      <feBlend mode="normal" in="SourceGraphic" in2="effect1_dropShadow_0_1" result="shape"/>
    </filter>
  </defs>
  <rect x="40" y="40" width="432" height="432" rx="124" fill="url(#bg)"/>
  <circle cx="150" cy="132" r="140" fill="url(#glowWarm)"/>
  <circle cx="378" cy="126" r="124" fill="url(#glowCool)"/>
  <g filter="url(#shadow)">
    <path d="M126 154C126 115.34 157.34 84 196 84H316C354.66 84 386 115.34 386 154V242C386 280.66 354.66 312 316 312H252.276L190.648 372.355C175.57 387.116 150 376.43 150 355.328V312H196C157.34 312 126 280.66 126 242V154Z" fill="url(#bubble)"/>
    <path d="M126 154C126 115.34 157.34 84 196 84H316C354.66 84 386 115.34 386 154V242C386 280.66 354.66 312 316 312H252.276L190.648 372.355C175.57 387.116 150 376.43 150 355.328V312H196C157.34 312 126 280.66 126 242V154Z" fill="white" fill-opacity="0.06"/>
    <rect x="212" y="146" width="44" height="140" rx="20" fill="#24161A"/>
    <rect x="212" y="242" width="120" height="44" rx="20" fill="#24161A"/>
    <rect x="334" y="132" width="34" height="34" rx="10" transform="rotate(45 334 132)" fill="#82CADC"/>
  </g>
</svg>
